<?xml version="1.0" encoding="utf-8"?>
<!DOCTYPE svg PUBLIC "-//W3C//DTD SVG 1.0//EN" "http://www.w3.org/TR/2001/REC-SVG-20010904/DTD/svg10.dtd">
<svg version="1.0" xmlns="http://www.w3.org/2000/svg" width="1600px" height="970px" viewBox="0 0 1600 970" preserveAspectRatio="xMidYMid meet">
 <g fill="#a3a3a3">
  <path d="M1133.5 659.4 c-16.8 -2.5 -30.6 -7.8 -42 -16.4 -6.7 -5 -28.9 -26.8 -30.6 -30.1 -0.8 -1.5 -2.4 -4.6 -3.7 -7 -8.7 -16.5 -12.5 -35.4 -12.6 -62.4 0 -15.8 0.4 -20.9 2.3 -30.4 2.6 -13.3 7.2 -26.1 12.7 -35.6 2.1 -3.7 4.4 -7.6 5 -8.6 2.5 -4.4 14.8 -17.1 21.1 -21.8 13 -9.7 25.9 -15 43.1 -17.6 5.6 -0.8 10.4 -1.5 10.8 -1.5 0.3 0 0.4 1 0.2 2.3 -0.3 2 -1.1 2.3 -7.6 2.9 -14 1.4 -30.2 7.7 -41.5 16.2 -6.1 4.5 -17.7 15.3 -17.7 16.4 0 0.4 -1.2 2.1 -2.7 3.8 -1.6 1.6 -3.4 4.2 -4 5.7 -0.7 1.5 -1.7 2.7 -2.3 2.7 -0.5 0 -1 0.7 -1 1.5 0 1.8 -6 13.9 -7.2 14.3 -0.4 0.2 -0.8 1.3 -0.8 2.4 0 1.1 -0.9 5 -2 8.6 -6.5 22.1 -6.5 53.6 0.1 78.2 1.7 6.4 9.3 24.5 10.9 26 2.3 2.1 7 9.1 7 10.4 0 0.9 0.7 1.6 1.6 1.6 0.9 0 4.3 2.4 7.7 5.4 15.1 13.5 43.5 20.7 70.1 17.7 13.9 -1.5 19.6 -3.1 31.6 -8.9 8 -3.8 10.9 -5.9 18.1 -13.1 13.1 -13 18.2 -25.6 17.7 -43.2 l-0.3 -9.3 -7.5 -2.2 c-10 -3 -11 -3 -11 0.1 0 1.6 -0.6 2.5 -1.5 2.5 -0.8 0 -1.5 -0.3 -1.5 -0.7 -0.1 -0.5 -0.5 -2.7 -0.9 -5.1 -0.5 -2.3 -0.6 -4.4 -0.2 -4.6 0.4 -0.3 6.5 1 13.6 2.8 l13 3.3 0.3 4.6 c0.3 4.5 0.4 4.7 4.5 5.7 9.1 2.3 8.7 1.6 8.7 14.3 0 34.5 -18 57 -53.5 67 -5.6 1.5 -10.8 2 -26 2.2 -10.4 0.2 -20.3 0.1 -22 -0.1z"/>
  <path d="M892 651 l0 -6 -6.5 0 c-5.8 0 -6.5 -0.2 -6.5 -2 0 -2 0.7 -2 73.5 -2 l73.5 0 0 -9 c0 -8.3 0.1 -9 2 -9 1.8 0 2 0.7 2 6 l0 6 6.5 0 6.5 0 0 11 0 11 -75.5 0 -75.5 0 0 -6z"/>
  <path d="M1264 651.1 l0 -6 -6.7 -0.3 -6.8 -0.3 -0.3 -106.2 -0.2 -106.3 31 0 c30.3 0 31 0 31 2 0 2 -0.7 2 -29 2 l-29 0 0 102.5 0 102.5 27.5 0 27.5 0 0 -52.5 0 -52.5 28.5 0 28.5 0 0 52.5 0 52.5 27.5 0 27.5 0 0 -102.5 0 -102.5 -27.5 0 -27.5 0 -0.2 42.3 -0.3 42.2 -28.2 0.3 -28.3 0.2 0 -40.5 c0 -33.8 0.2 -40.5 1.4 -40.5 0.7 0 1.6 0.9 1.9 1.9 0.4 1.7 1.5 2 6.8 2.3 l6.4 0.3 0.3 36.3 0.2 36.2 18 0 18 0 0 -42.5 0 -42.5 31.5 0 31.5 0 0 6 0 5.9 6.3 0.3 6.2 0.3 0 106 0 106 -30.7 0.3 -30.8 0.2 0 -6 0 -6 -7 0 -7 0 -0.2 -46.7 -0.3 -46.8 -17.7 -0.3 -17.8 -0.2 -0.2 52.7 -0.3 52.8 -30.7 0.3 -30.8 0.2 0 -5.9z"/>
  <path d="M175 650 l0 -6 -6.5 0 c-6.3 0 -6.5 -0.1 -6.5 -2.6 0 -2.4 0.3 -2.6 2.8 -1.9 1.5 0.4 37.2 1 79.4 1.2 l76.8 0.4 0 -7.5 0 -7.6 -32.2 0 c-17.8 0 -38.7 -0.3 -46.5 -0.7 l-14.3 -0.6 0 -3.5 c0 -3.3 4.8 -12 24.5 -44.7 2.3 -3.8 14.3 -23.9 26.5 -44.5 12.2 -20.6 28.4 -47.8 35.9 -60.3 l13.6 -22.8 -0.3 -6.3 c-0.4 -6.2 -0.4 -6.4 -3.4 -7 -4 -0.8 -137.6 -0.8 -141.7 0 l-3.1 0.7 0 6.7 0 6.7 11.3 0.6 c6.1 0.4 25.3 0.7 42.5 0.7 l31.2 0 0 2.9 c0 3.6 -16.6 33.9 -19.1 34.9 -0.5 0.2 -0.9 1.2 -0.9 2.3 0 1.1 -0.7 2.2 -1.5 2.5 -0.8 0.4 -1.5 1.2 -1.5 2 0 1.5 -6.9 12.7 -8.2 13.2 -0.4 0.2 -0.8 1 -0.8 1.8 0 1.3 -4.5 9.3 -5.9 10.4 -0.4 0.3 -1.1 1.7 -1.8 3.1 -1.9 4.3 -22.5 38.4 -23.4 38.7 -0.5 0.2 -0.9 1.1 -0.9 2.1 0 0.9 -0.9 2.7 -2 3.9 -1.1 1.2 -2 2.4 -2 2.7 0 0.3 -3.9 7.2 -8.7 15.3 -4.7 8.1 -10.4 17.7 -12.5 21.5 -2.2 3.7 -4.3 6.7 -4.8 6.7 -0.4 0 -1.1 1.1 -1.4 2.5 -0.4 1.4 -1.3 2.5 -2.1 2.5 -1 0 -1.5 1 -1.5 3 0 2.3 -0.4 3 -2 3 -3.6 0 -2.3 -3.5 7.6 -20.2 18.1 -30.6 21.5 -36.3 35.8 -60.3 35.8 -60.1 46.6 -78.4 46.6 -79 0 -0.3 -14.6 -0.5 -32.5 -0.5 l-32.5 0 0 -6 0 -6 -6.5 0 -6.6 0 0.3 -11.2 0.3 -11.3 76.9 -0.3 c56 -0.1 77.3 0.1 78.2 0.9 0.9 0.7 1.4 3.2 1.4 6.5 l0 5.3 5.8 0.3 5.7 0.3 0.3 9.5 0.2 9.5 -13.1 22 c-7.2 12.1 -17.9 30.1 -23.9 40 -5.9 9.9 -18 30.4 -27 45.5 -8.9 15.1 -17.3 29.1 -18.5 31 -3.3 5.1 -10.5 17.8 -10.5 18.4 0 0.3 15.7 0.6 34.9 0.6 19.2 0 35.6 0.3 36.5 0.6 1.2 0.5 1.6 2.1 1.6 6.5 l0 5.8 5.8 0.3 5.7 0.3 0.3 10.8 0.3 10.7 -81.1 0 -81 0 0 -6z"/>
  <path d="M370 650 l0 -6 -6.5 0 -6.5 0 0.2 -106.2 0.3 -106.3 68.5 0 68.5 0 0.3 6.2 0.3 6.2 6.2 0.3 6.2 0.3 0 10.5 0 10.5 -37.7 0.3 -37.8 0.2 0 25.5 0 25.5 25.5 0 25.5 0 0 6 c0 5.4 0.2 6 2.3 6.5 1.3 0.4 2.7 0.5 3.3 0.4 0.5 -0.1 2.1 -0.1 3.7 0 l2.7 0.1 0 10.5 0 10.5 -31.5 0 -31.5 0 0 35 0 35 36.4 0 c20 0 37.1 0.3 38 0.6 1.2 0.5 1.6 2.1 1.6 6.5 l0 5.9 6 0 6 0 0 11 0 11 -75 0 -75 0 0 -6z m134 -16.5 l0 -7.5 -35.7 0 c-19.7 0 -39.5 -0.3 -44 -0.7 l-8.3 -0.6 0 -44.3 0 -44.4 31.5 0 31.5 0 0 -7.5 0 -7.5 -22.3 0 c-12.3 0 -26.5 -0.3 -31.5 -0.6 l-9.2 -0.7 0 -34.3 0 -34.4 37.5 0 37.5 0 0 -7.5 0 -7.5 -65 0 -65 0 0 102 0 101.9 5.8 0.4 c3.1 0.2 35.3 0.4 71.5 0.5 l65.7 0.2 0 -7.5z"/>
  <path d="M544 650 l0 -6 -6.4 0 c-3.5 0 -6.6 -0.4 -6.8 -1 -0.1 -0.5 -0.1 -48.4 0.2 -106.2 l0.5 -105.3 68.5 0 68.5 0 0.3 6.3 0.3 6.2 5.9 0 6 0 0 11 0 11 -37.5 0 -37.5 0 0 25.5 0 25.5 25.5 0 25.4 0 0.3 6.3 0.3 6.2 5.3 0.1 c2.9 0.1 5.5 0.4 5.8 0.6 0.2 0.3 0.5 5 0.7 10.4 l0.2 9.9 -31.5 0.5 -31.5 0.5 -0.3 34.8 c-0.2 32.6 -0.1 34.7 1.5 34.8 1 0 17.1 0 35.8 0 18.7 -0.1 35.2 0.2 36.8 0.5 2.6 0.5 2.7 0.8 2.7 6.5 l0 5.9 6.3 0 6.3 0 2.2 -4.5 c2.4 -4.9 7.4 -8.7 14.1 -10.5 2.2 -0.6 4.1 -1.5 4.1 -2 0 -0.6 0.5 -1 1 -1 0.6 0 1 1.3 1 2.9 0 2.5 -0.5 3 -3.2 3.6 -4.3 1 -10 5.1 -12.7 9.3 -2.6 3.9 -4 10.2 -2.2 10.2 0.6 0 1.1 0.9 1.1 2 0 1.6 -0.7 2 -3 2 -2.9 0 -3 0.1 -3 5 l0 5 -75.5 0 -75.5 0 0 -6z m135 -16.4 l0 -7.4 -44 -0.3 c-27.6 -0.3 -44.2 -0.8 -44.7 -1.4 -0.4 -0.6 -0.7 -20.7 -0.5 -44.7 l0.3 -43.8 31.5 0 31.4 0 0 -7.5 0 -7.5 -31.5 0 -31.5 0 0.2 -35.2 0.3 -35.2 37.3 0.3 37.2 0.3 0 -7.5 0 -7.4 -10.7 -0.6 c-13.5 -0.9 -110.5 -0.9 -115.5 -0.1 l-3.8 0.7 0 101.8 0 101.8 5.8 0.4 c3.1 0.2 35.5 0.4 72 0.5 l66.2 0.2 0 -7.4z"/>
  <path d="M773.8 647.3 c-1 -0.2 -1.8 -1.1 -1.8 -1.9 0 -1.2 2.9 -1.4 17 -1.4 13.8 0 17 0.3 17 1.4 0 0.7 -1 1.6 -2.2 2 -2.6 0.7 -27.4 0.6 -30 -0.1z"/>
  <path d="M734.8 646.3 c-1 -0.2 -1.8 -1.1 -1.8 -1.9 0 -1.1 2.1 -1.4 11 -1.4 10.3 0 11 0.1 11 2 0 1.9 -0.6 2 -9.2 1.9 -5.1 -0.1 -10.1 -0.3 -11 -0.6z"/>
  <path d="M836 645 c0 -1.9 0.7 -2 9.4 -2 12.1 0 12.9 -0.8 9.6 -8.8 -2.2 -5.3 -4.1 -8.2 -5.4 -8.2 -0.3 0 -2.1 -1.1 -4.1 -2.4 -1.9 -1.3 -5.2 -2.7 -7.3 -3.1 l-3.9 -0.6 0.1 -13 c0.1 -8.8 -0.3 -13.2 -1.1 -13.7 -1.3 -0.8 -6.3 -11.8 -6.3 -13.8 0 -0.8 -0.4 -1.4 -0.8 -1.4 -1.2 0 -6.2 -9.3 -6.2 -11.4 0 -0.9 -0.4 -1.6 -0.9 -1.6 -1.1 0 -6.8 -13.5 -9.7 -23.3 -1.2 -4.2 -2.6 -11.5 -3 -16.2 -0.6 -7.3 -0.5 -8.5 0.9 -8.5 1.6 0 1.9 0.9 3.8 12.5 1.6 9.4 6 21.9 12.2 34 2.8 5.5 6.8 13.4 8.9 17.5 2.1 4.1 3.8 8.3 3.8 9.2 0 0.9 0.6 1.8 1.3 2.1 0.9 0.3 1.2 3.6 1.2 12.2 l0 11.9 3.9 0.8 c7.4 1.6 14.9 8.8 17.2 16.5 3.3 11.2 1.1 13.3 -13.8 13.3 -9.1 0 -9.8 -0.1 -9.8 -2z"/>
  <path d="M1138.7 632.6 c-5.9 -2.2 -11.3 -6.1 -15.7 -11.8 -5.2 -6.5 -6.2 -8.5 -9.9 -19.4 -5.4 -16.2 -7.7 -38.1 -6.8 -66.5 1.1 -34.1 4.6 -55.5 11.7 -70.4 4.6 -9.8 9.2 -15.2 15.6 -18.5 4.5 -2.3 6 -2.5 17.4 -2.5 11.5 0 13 0.2 18 2.6 6.2 3 9.6 6 13.8 12.2 4.6 6.6 6.3 13.7 6.9 28.5 0.3 7.2 0.9 13.2 1.4 13.2 0.9 0 17.1 -6.9 17.8 -7.6 0.9 -0.9 -0.1 -11.9 -1.4 -15.8 -0.8 -2.3 -1.5 -4.8 -1.5 -5.6 0 -3.4 -6.1 -14 -11.2 -19.5 -9.4 -10.1 -23 -16.7 -38.1 -18.3 -5.5 -0.6 -6.2 -1 -6.5 -3 -0.3 -2.3 -0.2 -2.3 4.5 -1.7 9.9 1.4 21.8 4.6 28 7.7 4.4 2.1 10.5 6.9 19.4 15 11.9 11 13.2 12.6 16.8 20.1 4.1 8.6 6.7 18.8 7.4 29.5 l0.5 6.4 -9.2 4.3 c-9.2 4.3 -16.5 7.5 -17.2 7.5 -0.2 0 -0.4 -3.8 -0.4 -8.5 0 -5.2 -0.4 -8.5 -1 -8.5 -0.6 0 -2.7 0.8 -4.8 1.9 -8.5 4.3 -7.9 5.2 -8.4 -12.6 -0.4 -13.4 -0.8 -16.8 -2.8 -22.1 -1.3 -3.5 -3.3 -7 -4.5 -7.8 -1.1 -0.7 -5.5 -1.9 -9.6 -2.5 -6.3 -1 -8.3 -0.9 -13 0.4 -16.6 4.9 -25.2 20.5 -30.6 55.7 -1.4 9 -1.8 17.7 -1.8 40 0.1 31.6 1.2 41.2 6.6 56.9 4.9 14.3 7.3 16.7 18.2 18.6 2.3 0.4 3.7 1.1 3.7 2 0 1.9 -8 2 -13.3 0.1z"/>
  <path d="M1154 632.7 c0 -1.1 1.3 -1.8 3.8 -2.2 23.4 -3.7 38.2 -23.2 38.2 -50.2 0 -8.6 0.1 -9.3 2 -9.3 1.8 0 2 0.7 2 6.9 0 14.6 -4.3 32.3 -8.6 35.7 -0.8 0.6 -1.4 1.7 -1.4 2.3 0 2.5 -9.3 10.9 -15.6 14.2 -5.2 2.6 -8.3 3.4 -13.6 3.7 -5.7 0.4 -6.8 0.2 -6.8 -1.1z"/>
  <path d="M937.2 581.3 l0.3 -44.8 31.8 -0.3 31.7 -0.2 0 -7.5 0 -7.5 -32 0 -32 0 0 -35 0 -35 38 0 38 0 0 -7.5 0 -7.5 -67 0 c-66.3 0 -67 0 -67 -2 0 -2 0.7 -2 69 -2 l69 0 0 6 0 5.9 6.3 0.3 6.2 0.3 0.3 10.8 0.3 10.7 -38.1 0 -38 0 0 25.5 0 25.5 25.3 0.2 25.2 0.3 0.3 6.3 0.3 6.2 6.5 0 6.5 0 -0.3 10.8 -0.3 10.7 -31.7 0.3 -31.8 0.2 0 35.1 c0 34.2 0 35.1 2 35.6 1.1 0.3 2 1.2 2 1.9 0 1.1 -2.2 1.4 -10.5 1.4 l-10.5 0 0.2 -44.7z"/>
  <path d="M716.4 598.9 c0.9 -7.8 5.8 -21.8 10.2 -29 1.9 -3.1 3.4 -6 3.4 -6.5 0 -0.4 0.6 -1.5 1.4 -2.3 4.3 -4.8 11.3 -22.1 13.6 -33.3 0.7 -3.8 1.6 -5.8 2.6 -5.8 0.9 0 1.4 1 1.4 2.8 -0.1 4.5 -2.8 15.6 -3.9 16 -0.6 0.2 -1.1 1.7 -1.1 3.2 0 3 -2.8 10 -4.1 10 -0.3 0 -0.9 1.3 -1.2 2.9 -0.3 1.6 -1.2 3.5 -2 4.3 -0.8 0.8 -1.8 2.4 -2.1 3.6 -0.4 1.2 -1.4 2.2 -2.2 2.2 -0.8 0 -1.4 1 -1.4 2.4 0 1.4 -0.7 3.1 -1.5 3.9 -0.7 0.8 -1.7 2.6 -2.1 4.1 -0.3 1.4 -1 2.6 -1.5 2.6 -0.5 0 -0.9 0.8 -0.9 1.8 0 1.1 -0.9 4.5 -2 7.6 -1.1 3.2 -2.2 8 -2.6 10.7 -0.5 4 -1 4.9 -2.7 4.9 -1.8 0 -1.9 -0.4 -1.3 -6.1z"/>
  <path d="M746 520 c0 -2.3 2.1 -26.8 2.6 -29.7 0.3 -2 1.1 -3.3 1.9 -3.3 1.9 0 1.9 4 0.4 21.3 -1.1 11.3 -1.4 12.7 -3.1 12.7 -1 0 -1.8 -0.4 -1.8 -1z"/>
  <path d="M804.6 510.3 c-0.3 -2.1 -0.9 -11.3 -1.3 -20.5 -0.5 -15 -0.4 -16.8 1 -16.8 2 0 2.4 2.6 3.2 19 0.3 6.9 0.8 14.6 1.1 17.3 0.6 4.2 0.5 4.7 -1.3 4.7 -1.6 0 -2.2 -0.9 -2.7 -3.7z"/>
  <path d="M749 475.8 c0 -3.9 1.2 -6.8 2.6 -6.8 1 0 1.4 1.3 1.4 4.5 0 3.8 -0.3 4.5 -2 4.5 -1.4 0 -2 -0.7 -2 -2.2z"/>
  <path d="M750 457.5 c0 -0.8 -1.1 -1.7 -2.5 -2.1 -4.1 -1 -3.1 -3.4 1.5 -3.4 3.9 0 4 0.1 4 3.5 0 2.4 -0.5 3.5 -1.5 3.5 -0.8 0 -1.5 -0.7 -1.5 -1.5z"/>
  <path d="M835.8 455.3 c-3.6 -0.9 -2 -3.3 2.2 -3.3 3.3 0 4 0.3 4 2 0 2 -2 2.4 -6.2 1.3z"/>
  <path d="M705.5 453.8 c-3.9 -1.4 -7.5 -4.7 -7.5 -7 0 -2.5 4 -2.4 4.7 0.2 0.3 1.1 1.2 2 1.9 2 0.8 0 1.4 0.5 1.4 1 0 0.6 1.6 1 3.5 1 2.8 0 3.5 0.4 3.5 2 0 2.3 -2.5 2.5 -7.5 0.8z"/>
  <path d="M844 452.9 c0 -1.2 1.4 -3.7 3 -5.6 1.7 -1.8 3 -3.8 3 -4.3 0 -0.6 0.9 -1 2 -1 3.7 0 1.4 7 -3.6 10.9 -3.4 2.7 -4.4 2.6 -4.4 0z"/>
  <path d="M850 434.2 c0 -4.2 -0.5 -5.3 -3.5 -8.2 -3.9 -3.7 -4.8 -8.2 -1.6 -7.3 1 0.3 3.3 1.9 4.9 3.6 2.6 2.7 3.2 4.3 3.8 10 0.6 6.4 0.6 6.7 -1.5 6.7 -1.8 0 -2.1 -0.6 -2.1 -4.8z"/>
  <path d="M698 430 c0 -5.8 5.5 -12 10.5 -12 2.7 0 1.7 3.7 -1.4 4.9 -2.8 1.2 -5.1 4.7 -5.1 7.6 0 0.8 -0.9 1.5 -2 1.5 -1.3 0 -2 -0.7 -2 -2z"/>
  <path d="M713 419.6 c0 -0.7 1 -1.6 2.3 -2 4.1 -1.1 5.7 -0.7 5.7 1.4 0 1.7 -0.7 2 -4 2 -2.7 0 -4 -0.4 -4 -1.4z"/>
  <path d="M829 419 c0 -2.1 1.6 -2.5 5.8 -1.4 3.9 1.1 2.7 3.4 -1.8 3.4 -3.3 0 -4 -0.3 -4 -2z"/>
  <path d="M723 418.6 c0 -1.9 3.1 -2.5 13.8 -2.5 8.4 0 9.2 0.2 9.2 2 0 1.8 -0.8 1.9 -11.5 1.9 -9.2 0 -11.5 -0.3 -11.5 -1.4z"/>
  <path d="M803.4 412.9 c0.6 -7.1 2.7 -11.9 5.2 -11.9 0.8 0 1.4 -0.7 1.4 -1.5 0 -1.2 3.9 -7.2 8 -12.2 1.3 -1.6 1.3 -10.3 0 -10.3 -0.5 0 -1 -0.5 -1 -1.1 0 -1.7 -2 -3.2 -11.2 -7.9 -4.8 -2.5 -8.8 -5 -8.8 -5.6 0 -0.7 -0.9 -1.4 -2 -1.7 -1.1 -0.3 -2.3 -1.3 -2.7 -2.4 -0.4 -1 -1.3 -2.4 -2 -3.1 -1.4 -1.4 -1.7 -6.2 -0.6 -10.1 0.6 -2.2 0.9 -2.3 6.2 -1.7 11.9 1.3 10.6 2.4 10.9 -8.3 0.3 -9.3 0.3 -9.4 -2 -8.7 -1.3 0.4 -5.6 1 -9.5 1.3 l-7.3 0.6 0 -4.1 c0 -2.3 0.8 -5.6 1.8 -7.4 l1.9 -3.3 -14.4 0 c-12.6 0 -14.3 0.2 -14.3 1.6 0 0.9 0.9 1.9 2 2.2 1.5 0.4 2 1.4 2 4.1 0 4.1 -1.9 4.8 -3.5 1.3 -0.6 -1.2 -2.1 -4.1 -3.4 -6.4 -3.9 -6.8 -3.7 -6.9 17 -6.7 10.1 0.1 18.7 0.3 19.2 0.3 2.1 0.3 -0.3 7.5 -4.1 12.3 -2.1 2.5 0.1 3.1 6 1.3 11.2 -3.3 12.5 -2 12.5 12.5 0 5.8 -0.4 11.1 -1 11.8 -1.2 1.6 -5.9 1.5 -12.4 -0.2 -2.9 -0.8 -5.3 -1 -5.3 -0.6 0 1.6 2.5 6.5 4.2 8.4 1 1.1 1.8 2.3 1.8 2.8 0 0.4 4.1 2.8 9.1 5.3 10 5 10.8 5.6 13.8 10.6 2.3 3.8 2.7 8.9 0.9 14 -1.2 3.7 -5.9 10.9 -8.7 13.7 -2.6 2.4 -6.1 9.3 -6.1 11.9 0 1.7 0.6 2.3 2.3 2.3 3.8 0 6.7 1.2 6.7 2.6 0 1.1 -1.7 1.4 -6.6 1.4 l-6.7 0 0.7 -7.1z"/>
  <path d="M744.9 405.4 c-8.9 -12.1 -11.1 -15.6 -11.6 -18.9 -0.5 -3 -0.3 -3.5 1.5 -3.5 1.5 0 2.1 0.9 2.6 3.5 0.4 1.9 1 3.5 1.5 3.5 0.4 0 1.4 1.2 2.2 2.6 0.7 1.4 3.1 4.3 5.1 6.4 3 3 3.8 4.5 3.8 7.4 0 2 -0.4 3.6 -0.8 3.6 -0.5 0 -2.4 -2.1 -4.3 -4.6z"/>
  <path d="M733 378.7 c0 -4.5 4.6 -9.3 14 -14.5 l9 -5 0 2.7 c0 2.3 -1 3.2 -6.9 6.4 -3.8 2 -7.4 4.4 -8.1 5.2 -0.7 0.8 -1.9 1.5 -2.6 1.5 -0.9 0 -1.4 1.1 -1.4 3 0 2.3 -0.4 3 -2 3 -1.4 0 -2 -0.7 -2 -2.3z"/>
  <path d="M761.7 351.6 c1.5 -2.5 3.2 -4.6 3.6 -4.6 0.4 0 0.7 1.9 0.5 4.3 -0.3 3.9 -0.5 4.2 -3.6 4.5 l-3.2 0.3 2.7 -4.5z"/>
  <path d="M744.6 347.4 c-1.5 -4 -0.2 -12.4 2 -12.4 1 0 1.4 1.4 1.4 5 0 2.8 0.5 5 1 5 0.6 0 1 0.9 1 2 0 2.5 -4.5 2.8 -5.4 0.4z"/>
  <path d="M745 325.2 c0 -2.5 3 -3.6 7.6 -2.7 3.9 0.7 4.8 3.5 1 3.5 -1.3 0 -3.8 0.3 -5.5 0.6 -2.7 0.6 -3.1 0.4 -3.1 -1.4z"/>
 </g>
 <g fill="#d73c30">
  <path d="M757 645 c0 -1.7 0.7 -2 4 -2 3.3 0 4 0.3 4 2 0 1.7 -0.7 2 -4 2 -3.3 0 -4 -0.3 -4 -2z"/>
  <path d="M833 645 c0 -1.7 0.7 -2 4.5 -2 4.9 0 6.4 2.3 2.3 3.4 -4.5 1.2 -6.8 0.7 -6.8 -1.4z"/>
  <path d="M697.3 645.3 c-0.7 -0.2 -1.3 -1.4 -1.3 -2.5 0 -2 0.4 -2 6.1 -1.4 3.4 0.3 8.6 0.6 11.5 0.6 4.7 0 5.4 0.2 5.4 2 0 1.9 -0.6 2 -10.2 1.9 -5.7 0 -10.9 -0.3 -11.5 -0.6z"/>
  <path d="M734 643.5 c0 -2.2 0.4 -2.5 3.5 -2.5 3.1 0 3.5 0.3 3.5 2.5 0 2.2 -0.4 2.5 -3.5 2.5 -3.1 0 -3.5 -0.3 -3.5 -2.5z"/>
  <path d="M705 623.2 c0 -1 3.2 -2.7 7.5 -4 3 -0.9 3 -0.9 3.6 -10.3 1.1 -17.4 4.5 -28.4 13.7 -43.9 8.9 -15.1 12.8 -24.3 15.1 -36 1.8 -9.4 3.9 -33.6 4.6 -54.2 l0.7 -19.6 -21.8 -0.4 c-30 -0.4 -31 -1.1 -30.2 -18.5 0.8 -17.4 1.8 -18 30.1 -19.2 10.9 -0.5 20.1 -1.1 20.4 -1.5 1.4 -1.4 -2.3 -10.2 -6.2 -14.6 -7.4 -8.4 -9 -11.7 -9 -19.2 0 -6 0.3 -7 3 -9.8 1.6 -1.7 6.1 -4.8 10 -6.9 9.6 -5.4 18.8 -15.2 17 -18.1 -0.3 -0.5 -2.7 -0.2 -5.3 0.5 -5 1.6 -9.1 1.9 -11.6 0.9 -1.3 -0.5 -1.6 -2.6 -1.6 -12.5 0 -11 0.2 -11.9 2.1 -12.9 1.5 -0.9 3.4 -0.9 7.2 0 9.8 2.1 9.7 2.1 9.7 0.5 0 -0.9 -0.9 -2.8 -2 -4.3 -1.2 -1.5 -2.2 -4.1 -2.3 -5.7 -0.2 -2.8 0 -3 3.8 -3.3 2.2 -0.2 5.9 -0.1 8.3 0.3 l4.2 0.6 0 31.5 c0 20.3 0.4 31.4 1 31.4 0.6 0 1 7.8 1 21.5 0 13.7 -0.4 21.5 -1 21.5 -0.6 0 -1 2.7 -1 6 0 3.3 0.4 6 1 6 0.6 0 1 6 1 16 0 10 -0.4 16 -1 16 -0.5 0 -1 1.1 -1 2.5 0 1.4 0.5 2.5 1 2.5 0.7 0 1 15 1 43 0 27.6 -0.4 43 -1 43 -0.6 0 -1.1 12.4 -1.2 33.8 l-0.3 33.7 -25.8 0.3 c-14.5 0.1 -26.7 0.7 -27.7 1.2 -1 0.6 -3.5 1 -5.4 1 -2 0 -3.6 0.5 -3.6 1 0 0.6 -1.8 1 -4 1 -2.2 0 -4 -0.4 -4 -0.8z"/>
  <path d="M836 617.5 c0 -1.9 0.4 -3.5 1 -3.5 0.5 0 0.7 0.6 0.4 1.4 -0.4 0.9 0.6 1.6 3 2 5.1 1 4.8 3.6 -0.4 3.6 -3.9 0 -4 -0.1 -4 -3.5z"/>
  <path d="M826 579 c0 -1.1 -0.4 -2 -1 -2 -0.5 0 -1 -1.6 -1 -3.5 0 -1.9 0.3 -3.5 0.8 -3.5 0.9 0 4.7 5.9 5.6 8.8 0.6 1.9 0.4 2.2 -1.8 2.2 -1.9 0 -2.6 -0.5 -2.6 -2z"/>
  <path d="M805 517 c0 -5.3 0.2 -6 2 -6 1.8 0 2 0.7 2 6 0 5.3 -0.2 6 -2 6 -1.8 0 -2 -0.7 -2 -6z"/>
  <path d="M803 495 c0 -4.5 2.3 -5.7 3.4 -1.7 1.1 4.1 0.7 5.7 -1.4 5.7 -1.7 0 -2 -0.7 -2 -4z"/>
  <path d="M842 420.5 c0 -3.1 1.1 -3.2 4.7 0 l2.8 2.4 -3.7 0.1 c-3.4 0 -3.8 -0.3 -3.8 -2.5z"/>
  <path d="M811 419 c0 -1.9 0.7 -2 9.8 -2 11 0 14.2 0.6 14.2 2.6 0 1.1 -2.4 1.4 -12 1.4 -11.3 0 -12 -0.1 -12 -2z"/>
  <path d="M802 415.5 c0 -3.1 0.3 -3.5 2.5 -3.5 2.2 0 2.5 0.3 1.9 2.5 -0.5 1.9 -0.2 2.5 1 2.5 0.9 0 1.6 0.5 1.6 1 0 0.6 -1.6 1 -3.5 1 -3.3 0 -3.5 -0.2 -3.5 -3.5z"/>
  <path d="M811 398.6 c0 -4 1.9 -5.9 5.4 -5.4 l2.5 0.3 -3.2 4.2 c-1.8 2.3 -3.5 4.2 -3.9 4.3 -0.5 0 -0.8 -1.5 -0.8 -3.4z"/>
  <path d="M816 372.4 c0 -3.9 0.9 -3.8 4 0.6 l2.1 3 -3 0 c-2.9 0 -3.1 -0.3 -3.1 -3.6z"/>
 </g>
 <g fill="#c1352e">
  <path d="M745.5 646.2 c-4 -0.2 -7.3 -0.8 -7.7 -1.5 -0.6 -0.9 -0.8 -0.8 -0.8 0.2 0 1.2 -2.8 1.3 -17.2 0.6 -24.1 -1.1 -23.1 -0.9 -23.8 -3 -1 -2.8 0.6 -10 3.2 -13.8 3.5 -5.4 6.8 -7.2 19.3 -10.7 2.3 -0.6 14.8 -1.1 29 -1.3 l25 -0.2 0.3 -33.4 c0.2 -25.3 0.5 -33.7 1.5 -34.3 0.9 -0.6 0.9 -1 -0.3 -1.9 -1.1 -0.8 -1.2 -1.2 -0.2 -1.6 1.4 -0.6 1.6 -4.3 0.2 -4.3 -0.5 0 -1 -0.7 -1 -1.5 0 -0.8 0.5 -1.5 1 -1.5 1.4 0 1.2 -2.7 -0.2 -3.3 -0.9 -0.4 -0.9 -0.8 -0.3 -1.4 1.5 -1.2 1.8 -9.5 0.3 -10.5 -0.8 -0.5 -0.9 -1.1 -0.3 -1.5 1.6 -1.2 1.7 -3.5 0.3 -4.5 -1 -0.8 -1 -1.1 0 -1.5 0.6 -0.2 1.2 -1.3 1.2 -2.3 0 -1 -0.6 -2.1 -1.2 -2.3 -1 -0.4 -1 -0.6 0 -0.6 0.6 -0.1 1.2 -0.8 1.2 -1.6 0 -0.8 0.7 -1.5 1.5 -1.5 1.4 0 1.5 6.5 1 56.8 -0.3 31.2 -0.6 62.7 -0.7 69.9 l-0.3 13.3 -12 -0.3 c-6.6 -0.1 -15.1 -0.3 -19 -0.5z"/>
  <path d="M816 645 c0 -1.9 0.7 -2 11.5 -2 9.1 0 11.5 0.3 11.5 1.4 0 2 -3.2 2.6 -13.7 2.6 -8.6 0 -9.3 -0.1 -9.3 -2z"/>
  <path d="M853 628.5 c0 -3.3 -0.2 -3.5 -3.2 -3.5 -4.1 -0.1 -6.8 -2 -6.8 -4.9 0 -2.7 0.9 -2.7 5.4 0.4 4.7 3.2 7 5.5 8.5 8.2 1.5 3 1.4 3.3 -1.4 3.3 -2.2 0 -2.5 -0.4 -2.5 -3.5z"/>
  <path d="M835 617.5 c0 -2.4 0.5 -3.5 1.5 -3.5 0.8 0 1.2 0.6 0.9 1.5 -0.4 0.9 0.3 1.6 2 2.1 3.9 1 3.3 3.4 -0.9 3.4 -3.3 0 -3.5 -0.2 -3.5 -3.5z"/>
  <path d="M831 588.5 c0 -2.4 -0.5 -3.5 -1.5 -3.5 -1 0 -1.5 -1.1 -1.5 -3.5 0 -1.9 0.5 -3.5 1 -3.5 0.9 0 7 12 7 13.6 0 0.2 -1.1 0.4 -2.5 0.4 -2.2 0 -2.5 -0.4 -2.5 -3.5z"/>
  <path d="M775 500.7 c0 -0.9 -0.6 -1.7 -1.2 -2 -1 -0.3 -1 -0.7 -0.2 -1.8 1.4 -1.7 1.6 -7.9 0.3 -7.9 -1.4 0 -1.1 -4.7 0.4 -5.4 1 -0.5 1 -0.7 0 -1.2 -0.7 -0.3 -1.3 -1.2 -1.3 -2 0 -0.8 0.6 -1.4 1.3 -1.4 0.8 0 0.7 -0.4 -0.3 -1 -1.3 -0.9 -1.3 -1.1 0 -2 1 -0.6 1.1 -1 0.3 -1 -0.7 0 -1.3 -1.1 -1.3 -2.4 0 -1.3 0.6 -2.7 1.3 -2.9 1 -0.4 1 -0.6 0 -0.6 -1.6 -0.1 -1.8 -11.1 -0.3 -11.1 0.6 0 1 -0.7 1 -1.5 0 -0.8 -0.4 -1.5 -1 -1.5 -0.5 0 -1 -0.7 -1 -1.5 0 -0.8 0.6 -1.5 1.3 -1.5 0.8 0 0.7 -0.4 -0.3 -1 -1.3 -0.9 -1.3 -1 0 -1 1.3 0 1.3 -0.1 0 -1.1 -1.1 -0.8 -1.2 -1.2 -0.2 -1.6 0.6 -0.2 1.2 -1.3 1.2 -2.4 0 -1 -0.6 -1.9 -1.2 -1.9 -1 0 -1 -0.2 0 -0.9 1.5 -0.9 1.3 -4.2 -0.3 -5.3 -0.6 -0.5 -0.5 -0.8 0.3 -0.8 0.6 0 1.2 -0.9 1.2 -2 0 -1.1 -0.4 -2 -1 -2 -0.6 0 -1 -3.7 -1 -9 0 -6.5 0.3 -9 1.3 -9 0.8 0 0.7 -0.4 -0.3 -1.1 -1.1 -0.8 -1.2 -1.2 -0.2 -1.6 0.6 -0.2 1.2 -1.3 1.2 -2.3 0 -1 -0.6 -2.1 -1.2 -2.3 -1 -0.4 -1 -0.6 0 -0.6 0.6 -0.1 1.2 -0.8 1.2 -1.6 0 -0.8 -0.6 -1.5 -1.2 -1.5 -1 0 -0.9 -0.3 0.1 -0.9 1.1 -0.7 1.1 -0.9 0 -1.4 -1.2 -0.5 -1.1 -0.8 0.1 -1.7 1.1 -0.9 1.2 -1.3 0.3 -1.7 -1.4 -0.5 -1.8 -6.3 -0.5 -6.3 0.5 0 0.9 -1.3 1 -3 0 -1.7 -0.5 -3 -1.1 -3 -0.7 0 -0.6 -0.4 0.3 -1 1 -0.6 1.1 -1 0.3 -1 -0.7 0 -1.3 -1.1 -1.3 -2.4 0 -1.3 0.6 -2.7 1.3 -2.9 1 -0.4 1 -0.6 0 -0.6 -1 -0.1 -1.3 -7.4 -1.3 -33.1 l0 -33 2.5 0 2.5 0 -0.2 95.2 c-0.2 75 -0.6 95.2 -1.5 95.6 -0.7 0.2 -1.3 -0.3 -1.3 -1.1z"/>
  <path d="M802 475.5 c0 -3.8 0.3 -4.5 2 -4.5 1.7 0 2 0.7 2 4.5 0 3.8 -0.3 4.5 -2 4.5 -1.7 0 -2 -0.7 -2 -4.5z"/>
  <path d="M847.2 449.5 c0.3 -3.5 0.6 -4 3.1 -4.3 3.5 -0.4 3.4 1 -0.3 5 l-3 3.3 0.2 -4z"/>
  <path d="M843 420.9 l0 -3 3 2.1 c4.4 3.1 4.5 4 0.6 4 -3.3 0 -3.6 -0.2 -3.6 -3.1z"/>
  <path d="M816 374.5 c0 -2 -0.5 -2.5 -2.5 -2.5 -2.1 0 -2.5 -0.5 -2.5 -3 l0 -2.9 3.3 1.9 c2.9 1.7 7.7 7 7.7 8.5 0 0.3 -1.3 0.5 -3 0.5 -2.5 0 -3 -0.4 -3 -2.5z"/>
  <path d="M800.3 365 c-0.3 -1.2 -1.4 -2 -2.7 -2 -1.2 0 -2.7 -0.5 -3.4 -1.2 -1.2 -1.2 -1.7 -7.8 -0.6 -7.8 0.3 0 1.7 1.4 3.1 3 1.4 1.7 4.8 4.2 7.4 5.6 2.7 1.3 4.9 2.9 4.9 3.4 0 0.6 -1.8 1 -4.1 1 -3.2 0 -4.2 -0.4 -4.6 -2z"/>
  <path d="M787.3 328.3 c-1.5 -0.5 -1.8 -7.3 -0.4 -7.3 0.5 0 1.1 -0.9 1.4 -2 0.3 -1.3 1.4 -2 3 -2 2 0 2.4 0.4 2 2 -0.3 1.1 -0.9 2.3 -1.4 2.6 -2.1 1.3 -0.8 3.4 2.1 3.4 2.3 0 3 0.4 3 2 0 1.7 -0.6 2 -4.2 1.9 -2.4 0 -4.9 -0.3 -5.5 -0.6z"/>
 </g>
 <g fill="#a12e27">
  <path d="M773.5 644.7 c-0.4 -1.3 -0.3 -8.1 0 -15.3 0.3 -7.1 0.8 -81.5 1 -165.3 0.3 -83.8 0.6 -152.5 0.7 -152.6 0.2 -0.2 4.7 -0.6 10 -1 8.8 -0.6 9.9 -0.5 10.5 1.1 0.3 0.9 0 2.9 -0.9 4.3 -0.8 1.4 -2.1 3.7 -2.9 5.1 -0.8 1.4 -1.8 2.8 -2.2 3.1 -2.4 1.8 3.4 1.7 9.4 -0.1 10.5 -3.1 10.9 -2.7 10.9 11.4 0 14.2 -0.3 14.5 -9.5 12.2 -8.2 -2 -8.5 -2 -8.5 0.5 0 5.1 9.8 15.9 14.5 15.9 0.6 0 2.7 1 4.6 2.3 1.9 1.3 4.2 2.6 5.2 3 0.9 0.3 2 1.5 2.4 2.4 0.4 1 1.2 2.2 2 2.6 0.9 0.5 1.3 3 1.3 7.3 0 7.2 -0.5 8.2 -12.2 23.5 -1.6 2 -2.8 4.7 -2.8 6 0 1.4 -0.5 3 -1.1 3.6 -2.1 2.1 1.4 2.6 19.7 3.1 l18.2 0.5 4.4 3.8 4.5 3.8 0.7 9.1 c0.7 8.9 0.7 9.3 -2 13.2 -5.1 7.3 -4.9 7.3 -25.9 7.6 -10.4 0.2 -19.1 0.5 -19.3 0.6 -0.8 0.9 -0.2 36.3 0.9 44.6 0.6 5.2 1.2 11.8 1.4 14.5 0.3 7.9 2.2 18.3 5 27 2.2 6.8 16.9 38.4 22.3 48 1.3 2.3 1.7 5.8 1.9 14.9 0.1 7.6 0.5 12.1 1.3 12.6 1.4 0.8 -24.9 2 -45.7 2 l-15.3 0 0 10.4 0 10.4 7.5 0.7 c4.1 0.4 12.4 0.4 18.4 0 13.1 -0.9 18.1 -0.2 18.1 2.4 0 1.1 -1 2.1 -2.2 2.5 -1.3 0.3 -12.1 0.6 -24 0.6 l-21.8 0 -0.5 -2.3z"/>
  <path d="M841 643.5 c0 -2.5 0.1 -2.5 8.5 -2.5 8.4 0 8.5 0 8.5 2.5 0 2.5 -0.1 2.5 -8.5 2.5 -8.4 0 -8.5 0 -8.5 -2.5z"/>
 </g>
 <g fill="#8e2822">
  <path d="M796.8 646 c-0.1 -0.5 -5 -1 -10.8 -1.2 l-10.5 -0.3 -0.3 -13.6 -0.3 -13.6 30.8 -0.6 c19.9 -0.5 31.1 -0.3 31.7 0.3 0.6 0.6 2.3 1 3.8 1 1.5 0 5.2 1.6 8.3 3.5 4.3 2.8 6 4.7 8 9 3.1 6.5 3.1 13.1 0.1 14.9 -1.4 0.8 -2 0.8 -2.3 -0.1 -0.6 -1.6 -11.3 -1.8 -11.3 -0.2 0 0.7 -4.2 0.9 -13.7 0.4 -22.3 -1 -28.7 -0.9 -29.1 0.3 -0.4 1.4 -3.9 1.6 -4.4 0.2z"/>
 </g>
 <g fill="#000000">
  <path d="M1120.5 646.9 c-9 -1 -22.9 -5.1 -30.8 -9 -7.4 -3.6 -19.3 -13.7 -24.9 -21.1 -12.9 -17.2 -19.8 -42.6 -19.8 -73.3 0 -36.6 9.6 -64.2 29.7 -85.6 14.7 -15.5 35.3 -26 54.3 -27.6 3.9 -0.3 7.3 -1 7.6 -1.4 0.7 -1.2 16.1 -1.1 16.9 0.1 0.3 0.6 2.3 1 4.4 1 5.6 0 18.9 3.8 25.6 7.3 8.4 4.4 18.7 14.9 22.5 22.8 1.6 3.5 3 7.1 3 7.9 0 0.8 0.6 3.3 1.4 5.5 1.7 4.9 2.9 19.5 1.8 21.2 -0.5 0.9 -23.4 11.3 -24.8 11.3 -0.1 0 -0.4 -6.6 -0.7 -14.8 -0.6 -16.3 -2.1 -23 -6.9 -29.9 -4.2 -6.2 -7.6 -9.2 -13.8 -12.2 -4.8 -2.2 -6.8 -2.6 -15 -2.6 -8.2 0 -10.2 0.4 -14.4 2.5 -2.7 1.4 -6.4 4.3 -8.4 6.5 -6.8 7.8 -13.8 26.4 -15.7 41.7 -0.2 2.3 -0.9 8.1 -1.5 12.8 -2.8 22.7 -2.3 50.8 1.1 73.3 2.4 15.5 10.4 32.5 18.6 39.7 7.1 6.3 10.8 7.5 22.8 7.5 10.1 0 11.5 -0.2 16.9 -2.9 19 -9.3 28.6 -30.7 25.7 -57.3 -0.6 -5.3 -0.9 -9.9 -0.6 -10.1 0.2 -0.2 5.9 1.1 12.7 3 l12.3 3.3 0.3 12.4 c0.5 21 -3.9 32.5 -17.7 46.2 -7.2 7.1 -10.2 9.3 -18.1 13.1 -10.6 5.1 -17.8 7.3 -29.3 8.8 -9 1.1 -25 1.1 -35.2 -0.1z"/>
  <path d="M1280.8 644.3 l-29.8 -0.3 0 -105.5 0 -105.5 30.5 0 30.5 0 0 42.5 0 42.5 25.3 -0.2 25.2 -0.3 0.3 -42.2 0.2 -42.2 30.1 -0.3 c16.5 -0.2 30.3 -0.1 30.5 0.1 0.5 0.6 0.5 210.6 0 211.2 -0.2 0.2 -14 0.3 -30.5 0.1 l-30.1 -0.3 0 -52.4 0 -52.5 -25.5 0 -25.5 0 0 53 c0 29.2 -0.3 52.9 -0.7 52.8 -0.5 -0.2 -14.2 -0.4 -30.5 -0.5z"/>
  <path d="M169 643.1 l-6.5 -0.6 0 -10.5 c0 -10.1 0.1 -10.7 3.2 -15.5 1.7 -2.7 6 -9.7 9.4 -15.5 10.7 -17.9 21.1 -35.4 22.3 -37.5 2 -3.6 24.8 -41.9 28.7 -48.2 2.2 -3.4 3.9 -6.5 3.9 -6.8 0 -0.2 1.9 -3.5 4.3 -7.2 2.4 -3.8 4.7 -7.5 5.1 -8.3 0.4 -0.8 1.2 -2.4 1.9 -3.5 0.7 -1.1 3.5 -5.8 6.3 -10.5 2.9 -4.7 7.2 -12.2 9.7 -16.8 l4.6 -8.2 -31.2 0 c-17.2 0 -36.3 -0.3 -42.4 -0.7 l-11.3 -0.6 0 -9.8 0 -9.8 4.3 -0.6 c2.3 -0.3 36.8 -0.5 76.7 -0.3 l72.5 0.3 0.8 9.3 0.7 9.2 -13.9 23.3 c-7.6 12.7 -23.9 40.1 -36.1 60.7 -12.2 20.6 -24.2 40.7 -26.5 44.5 -12.8 21.3 -24.7 41.6 -24.4 41.9 0.9 0.8 32.4 1.6 61.7 1.6 l31.2 0 0 10.5 0 10.5 -74.2 -0.2 c-40.9 -0.1 -77.2 -0.4 -80.8 -0.7z"/>
  <path d="M363.8 643.3 l-5.8 -0.4 0 -105.3 0 -105.3 3.8 0.3 c2 0.2 32.5 0.3 67.8 0.3 l64.1 0.1 0.6 9.1 c0.3 5 0.3 9.7 0 10.5 -0.4 1.2 -6.5 1.4 -37.9 1.4 l-37.4 0 0 31.4 0 31.3 9.2 0.7 c5 0.3 19.2 0.6 31.5 0.6 l22.3 0 0 10.5 0 10.5 -31.5 0 -31.5 0 0 41.4 0 41.3 8.3 0.6 c4.5 0.4 24.3 0.7 44 0.7 l35.7 0 0 10.5 0 10.5 -68.7 -0.2 c-37.9 -0.1 -71.4 -0.3 -74.5 -0.5z"/>
  <path d="M537.7 643.3 l-5.7 -0.4 0.2 -105.2 0.3 -105.2 67.5 0 67.5 0 0.3 10.8 0.3 10.7 -37.3 0 -37.3 -0.1 -0.3 32.1 -0.2 32.1 5.7 -0.1 c3.2 -0.1 17.4 -0.1 31.6 -0.1 l25.7 0.1 0 10.5 0 10.5 -31.5 0 -31.5 0 -0.2 41.1 c-0.2 26.8 0 41.3 0.7 41.5 2.7 0.8 25.3 1.4 55.2 1.4 l33.2 0 0.3 8.9 c0.2 4.9 0.2 9.6 0 10.5 -0.3 1.5 -6.6 1.6 -69.5 1.4 -38.1 -0.1 -71.8 -0.3 -75 -0.5z"/>
  <path d="M879 538.5 l0 -105.5 68.5 0 68.5 0 0 10.5 0 10.5 -38 0 -38 0 0 32 0 32 32 0 32 0 0 10.5 0 10.5 -31.7 0.2 -31.8 0.3 -0.3 41.8 -0.2 41.7 44.5 0 44.5 0 0 10.5 0 10.5 -75 0 -75 0 0 -105.5z"/>
 </g>
</svg>